<?xml version="1.0" encoding="UTF-8"?>
<!DOCTYPE svg PUBLIC "-//W3C//DTD SVG 1.1//EN" "http://www.w3.org/Graphics/SVG/1.1/DTD/svg11.dtd">
<!-- Creator: CorelDRAW 2019 (64-Bit) -->
<svg xmlns="http://www.w3.org/2000/svg" xml:space="preserve" width="200px" height="200px" version="1.1" style="shape-rendering:geometricPrecision; text-rendering:geometricPrecision; image-rendering:optimizeQuality; fill-rule:evenodd; clip-rule:evenodd"
viewBox="0 0 739.28 557.48"
 xmlns:xlink="http://www.w3.org/1999/xlink"
 xmlns:xodm="http://www.corel.com/coreldraw/odm/2003">
 <defs>
  <style type="text/css">
   <![CDATA[
    .str0 {stroke:#2B2A29;stroke-width:2.37;stroke-miterlimit:22.9256}
    .fil3 {fill:none}
    .fil0 {fill:#FEFEFE}
    .fil4 {fill:#2B2A29}
    .fil5 {fill:#D7B56D}
    .fil7 {fill:#F08365}
    .fil8 {fill:#DBE285}
    .fil6 {fill:#A8D4AF}
    .fil2 {fill:#C3B9A3}
    .fil1 {fill:#C3B9A3}
   ]]>
  </style>
 </defs>
 <g id="Layer_x0020_1">
  <metadata id="CorelCorpID_0Corel-Layer"/>
  <path class="fil0 str0" d="M401.5 35.32c23.63,-27.77 36.86,-58.43 42.49,-4.14 1.76,17.05 0,0 2.69,31.75 0,0 -20.82,-21.43 -45.18,-27.61z"/>
  <path class="fil1 str0" d="M413.9 35.45c15.31,-15.3 24.61,-32.81 25.34,-0.41 0.22,10.17 0,0 0.07,18.92 0,0 -11.3,-13.68 -25.41,-18.51z"/>
  <path class="fil0 str0" d="M238.91 32.6c-7.44,4.7 -4.31,23.11 -4.31,23.11 0,0 3.18,44.51 9.58,36.39 6.4,-8.12 28.89,-36.07 41.58,-39.36 12.69,-3.29 -39.8,-26.4 -46.85,-20.14z"/>
  <path class="fil0 str0" d="M392.47 356.55l-7.46 198.6c0,0 175.9,-103.71 186.09,-121.73 10.18,-18.02 -14.74,-170.61 -14.74,-170.61l-163.89 93.74z"/>
  <path class="fil0 str0" d="M554.99 262.08l-270.64 -98.26c0,0 -177.98,72.28 -183.81,76.14 -5.82,3.87 -5.08,3.69 -0.85,5.25l293.65 108.24 87.28 -45.56 74.37 -45.81z"/>
  <path class="fil0 str0" d="M201.69 283.15c-0.78,-26.53 -2.59,-64.71 1.96,-90.58 3.01,-17.04 11.86,-61.8 40.53,-100.47 9.07,-12.23 22.73,-26.85 36.14,-36.89 50.21,-37.62 119.41,-46.59 169.92,9.15 16.54,18.26 31.18,43.9 37.35,76.83 6.18,32.93 10.12,156.44 10.12,156.44l-100.58 60.42 -195.44 -74.9z"/>
  <path class="fil2 str0" d="M130.8 256.27c0,0 -16.45,-23.11 -16.45,-39.17 0,-16.06 11.75,-93.62 11.75,-93.62 0,0 5.09,-31.73 -12.15,-32.51 -17.23,-0.78 -51.7,-2.74 -46.22,-21.94 5.48,-19.19 52.1,-16.45 71.29,0.79 19.2,17.23 35.26,51.7 26.64,85 -8.62,33.3 -5.88,60.72 -5.88,60.72 0,0 8.73,55.05 30.28,63.28 21.54,8.23 -59.26,-22.55 -59.26,-22.55z"/>
  <path class="fil0 str0" d="M96.57 242.95c-4.71,56.42 -14.34,217.5 -14.34,217.5 0,0 238.95,93.23 296.14,94.8 57.19,1.56 18.76,-197.2 18.76,-197.2l-300.56 -115.1z"/>
  <path class="fil0 str0" d="M94 242.03c-15.79,3.04 -31.61,21.43 -42.32,32.65 -33.3,34.86 -47.4,66.59 -50.54,78.34 -3.13,11.76 311.43,145.76 324.73,142.2 13.31,-3.57 45.84,-84.61 45.84,-84.61l23.11 -55.63c0,0 -99.89,-41.91 -137.49,-54.84 -37.61,-12.93 -163.33,-58.11 -163.33,-58.11z"/>
  <path class="fil3 str0" d="M358.4 132.58c-1.18,2.75 6.65,45.44 -10.87,26.94"/>
  <path class="fil3 str0" d="M358.84 131.88c1.51,2.57 -0.73,45.92 14.26,25.3"/>
  <path class="fil4 str0" d="M365.63 129.19c0,0 -3.72,-2.35 -6.47,-2.06 -2.74,0.3 -7.44,2.94 -7.44,2.94l6.47 5.19 7.44 -6.07z"/>
  <path class="fil5 str0" d="M250.13 46.36c-4.49,2.84 -2.6,13.94 -2.6,13.94 0,0 1.91,26.85 5.77,21.95 3.86,-4.89 17.44,-21.76 25.09,-23.75 7.65,-1.98 -24.01,-15.92 -28.26,-12.14z"/>
  <path class="fil5 str0" d="M329.82 31.01c0,0 14.08,73.08 -0.8,101.28 -27.4,51.91 -72.9,41.18 -121.18,40.29 0,0 26.43,-119.38 121.98,-141.57z"/>
  <circle class="fil4 str0" cx="316.43" cy="127.09" r="7.44"/>
  <path class="fil1 str0" d="M341.94 40.24c1.21,10.18 26.59,83.04 49.15,94.01 22.55,10.97 91.57,11.29 95.94,9.4 4.37,-1.89 -10.68,-40.21 -10.68,-40.21 0,0 -25.51,-56.81 -73.85,-71.73 -48.34,-14.93 -60.29,-2.81 -60.29,-2.81 0,0 -0.27,11.34 -0.27,11.34z"/>
  <circle class="fil4 str0" cx="390.66" cy="116.31" r="7.44"/>
  <path class="fil3 str0" d="M442.22 107.51c0,0 21.55,-41.91 94.01,-38.77"/>
  <path class="fil3 str0" d="M450.84 122.79c0,0 39.17,-39.56 100.67,-19.58"/>
  <line class="fil3 str0" x1="458.28" y1="134.54" x2="556.21" y2= "132.58" />
  <path class="fil3 str0" d="M242.45 138.85c0,0 -56.41,-21.15 -63.46,-21.15"/>
  <path class="fil3 str0" d="M235.01 155.3c-39.57,-12.92 -66.98,5.97 -76,8.62"/>
  <path class="fil3 str0" d="M239.71 167.84c0,0 -34.48,-19.2 -70.12,20.76"/>
  <path class="fil0 str0" d="M556.24 260.92c-21.97,21.22 -136.09,78.6 -161.42,94.06 0,0 41.52,54.45 42.69,65.81 1.18,11.36 170.4,-65.03 165.31,-93.23 -5.09,-28.2 -46.58,-66.64 -46.58,-66.64z"/>
  <g id="_2515428206688">
   <ellipse class="fil6 str0" cx="527.83" cy="486.63" rx="81.48" ry="68.94"/>
   <path class="fil3 str0" d="M456.31 519.68c0,0 83.36,-23.09 95.46,-98.97"/>
   <path class="fil3 str0" d="M449.35 505.21c0,0 108.42,-51.08 84.83,-87.32"/>
   <path class="fil3 str0" d="M466.33 441.92c0,0 35.37,-6.7 35.91,30.15"/>
   <path class="fil3 str0" d="M452.65 460.01c0,0 37.76,-11.58 31.25,26.22"/>
   <path class="fil3 str0" d="M497.11 422.75c0,0 23.86,2.65 30.03,28.96"/>
   <path class="fil3 str0" d="M575.72 542.41c0,0 22.77,-69.65 -57.24,-59.15"/>
   <path class="fil3 str0" d="M500.56 497.92c0,0 82.92,-1.66 51.18,54.63"/>
   <path class="fil3 str0" d="M485.47 545.53c0,0 132.65,-23.43 115.71,-88.96"/>
   <path class="fil3 str0" d="M587.75 439.91c0,0 -59.82,94.38 -116.43,96.38"/>
   <path class="fil3 str0" d="M545.09 444.62c0,0 27.41,-9.28 25.22,19.63"/>
   <path class="fil3 str0" d="M560.81 475.97c0,0 13.02,-36.12 -24.08,-15.08"/>
   <path class="fil3 str0" d="M485.88 507c0,0 69.59,-0.15 51.46,48.1"/>
  </g>
  <path class="fil3 str0" d="M513.18 554.46c0,0 45.14,9.53 102.66,-14.76 57.52,-24.29 107.18,-23.5 122.42,2.35"/>
  <path class="fil7 str0" d="M200.84 205.71l0 31.84c0,0.48 179.2,44.94 253.44,21.14 18.27,-5.86 41.15,-18.25 40.77,-25.17 -1.5,-27.66 0,0 -1.49,-27.43 -0.28,-5.18 -1.63,-2.42 -4.57,-1.42 -20.52,6.97 -110.88,75.82 -288.15,1.04z"/>
  <circle class="fil8 str0" cx="364.05" cy="274.65" r="23.11"/>
  <path class="fil3 str0" d="M341.6 269.14c0,0 25.38,19.82 43.7,-3.59"/>
  <path class="fil3 str0" d="M364.05 297.76c0,0 5.88,-9.4 2.74,-10.97"/>
  <circle class="fil4 str0" cx="366.4" cy="284.93" r="3.92"/>
 </g>
</svg>
