<svg width="200" height="200" viewBox="0 0 200 200" fill="none" xmlns="http://www.w3.org/2000/svg">
<g clip-path="url(#clip0)">
<path d="M113.045 99.3729V25.3686C99.4452 28.3708 88.247 33.5046 79.2104 40.6799C71.0444 47.0745 64.5596 55.1805 59.636 64.8476H98.6046V86.9138H25.531C28.5332 100.484 33.6669 111.682 40.8422 120.749C47.1768 128.915 55.3428 135.399 65.1 140.383V101.414H87.0461V174.488C100.646 171.486 111.844 166.352 120.881 159.177C129.047 152.782 135.562 144.646 140.515 134.919H102.177V112.973H174.56C171.558 99.3729 166.424 88.1747 159.249 79.1381C152.884 70.9721 144.778 64.5173 135.081 59.5337V99.3729H113.045ZM164.623 134.919C157.928 151.941 147.991 165.842 134.571 176.439C119.71 188.148 100.826 195.594 77.409 198.326L65.1 199.767V164.491C48.0175 157.796 34.0872 147.859 23.4895 134.409C11.7809 119.548 4.33539 100.574 1.51332 77.2467L0.0722656 64.8476H35.5583C42.2532 47.8851 52.1905 33.9249 65.6104 23.3271C80.4713 11.6185 99.3551 4.17306 122.772 1.44106L135.081 0V35.426C152.074 42.1209 165.944 52.0282 176.602 65.448C188.31 80.3089 195.756 99.1928 198.488 122.61L199.929 134.919H164.623Z" fill="#1A7555"/>
</g>
<defs>
<clipPath id="clip0">
<rect width="200" height="199.767" fill="white"/>
</clipPath>
</defs>
</svg>
