<svg width="419" height="136" viewBox="0 0 419 136" fill="none" xmlns="http://www.w3.org/2000/svg">
<rect width="419" height="136" fill="white"/>
<path d="M127.12 56.2476H138.015C143.44 56.2476 147.145 57.4961 149.163 59.9521C151.181 62.4081 152.169 65.0147 152.169 67.7649C152.169 69.7078 151.694 71.5789 150.74 73.3405C149.785 75.0987 148.355 76.5285 146.412 77.5924C144.47 78.6938 142.12 79.2445 139.369 79.2445H134.567V93.0708H127.12V56.2476ZM134.567 73.45H138.015C139.995 73.45 141.535 72.8993 142.636 71.7636C143.734 70.6245 144.285 69.2323 144.285 67.5459C144.285 65.9656 143.772 64.6452 142.78 63.619C141.791 62.5552 140.177 62.0421 138.049 62.0421H134.567V73.45Z" fill="#1A7555"/>
<path d="M155.618 56.2476H177.622V62.7776H163.098V71.0658H176.302V77.1169H163.098V86.5442H177.622V93.0708H155.618V56.2476Z" fill="#1A7555"/>
<path d="M208.504 85.6617L208.983 91.9352C205.829 92.999 202.638 93.5121 199.446 93.5121C196.843 93.5121 194.384 93.1084 192.075 92.3388C189.728 91.5315 187.71 90.3582 185.914 88.7813C184.152 87.2044 182.757 85.2238 181.768 82.9115C180.776 80.5649 180.263 77.8866 180.263 74.9174C180.263 72.0544 180.742 69.4136 181.693 67.0671C182.647 64.7205 184.005 62.7023 185.801 61.016C187.6 59.3296 189.762 58.081 192.294 57.1643C194.825 56.2852 197.685 55.8439 200.838 55.8439C203.626 55.8439 206.342 56.2476 208.983 57.0925L208.651 63.4001C206.376 62.4834 203.92 62.0421 201.351 62.0421C198.824 62.0421 196.587 62.5552 194.568 63.5472C192.588 64.5358 191.011 66.0033 189.872 67.912C188.736 69.8173 188.185 72.1296 188.185 74.8046C188.185 77.7771 188.811 80.1613 190.019 82.0666C191.23 83.9377 192.807 85.2957 194.715 86.103C196.621 86.9102 198.639 87.3139 200.804 87.3139C203.592 87.2762 206.12 86.7255 208.504 85.6617Z" fill="#1A7555"/>
<path d="M229.449 55.8063C232.893 55.8063 236.013 56.5418 238.725 58.0092C241.476 59.4767 243.603 61.6043 245.146 64.464C246.685 67.3236 247.492 70.6998 247.492 74.6609C247.492 78.622 246.723 82.0324 245.146 84.8544C243.603 87.7175 241.441 89.8417 238.725 91.3092C236.013 92.7766 232.893 93.5121 229.449 93.5121C225.963 93.5121 222.881 92.7766 220.168 91.3092C217.452 89.8417 215.29 87.7175 213.751 84.8544C212.208 81.9948 211.401 78.622 211.401 74.6609C211.401 70.6998 212.174 67.286 213.751 64.464C215.29 61.6385 217.452 59.4767 220.168 58.0092C222.881 56.5418 226.001 55.8063 229.449 55.8063ZM229.449 61.0878C227.872 61.0878 226.329 61.4572 224.79 62.1892C223.285 62.9247 221.964 64.2793 220.9 66.2974C219.837 68.3156 219.289 71.1034 219.289 74.6609C219.289 78.2184 219.837 81.0028 220.9 83.021C221.964 85.0391 223.285 86.3971 224.79 87.1291C226.291 87.8612 227.868 88.2306 229.449 88.2306C230.584 88.2306 231.686 88.0459 232.859 87.6799C233.995 87.3139 235.096 86.616 236.122 85.6617C237.148 84.6731 237.993 83.2775 238.653 81.4817C239.314 79.6482 239.642 77.4111 239.642 74.6609C239.642 71.1034 239.091 68.3156 238.031 66.2974C236.967 64.2793 235.647 62.9247 234.142 62.1892C232.565 61.4572 231.025 61.0878 229.449 61.0878Z" fill="#1A7555"/>
<path d="M250.352 74.5856H271.55V80.7462H250.352V74.5856Z" fill="#1A7555"/>
<path d="M299.609 93.0708H292.494L283.543 66.7729L281.856 61.4914H281.709L281.822 67.1765V93.0708H274.338V56.2476H286.956L294.328 77.6676L295.977 84.1942H296.124L297.738 77.6676L305.11 56.2476H317.763V93.0708H310.282V67.1765L310.391 61.4914H310.244L308.558 66.7729L299.609 93.0708Z" fill="#1A7555"/>
<path d="M322.127 56.2476H344.132V62.7776H329.608V71.0658H342.812V77.1169H329.608V86.5442H344.132V93.0708H322.127V56.2476Z" fill="#1A7555"/>
<path d="M355.759 56.2476H379.745V86.5442H383.962V100.808H376.591V93.0708H354.439V100.808H347.067V86.5442H351.285C352.534 84.4165 353.484 82.3231 354.145 80.3426C354.805 78.3278 355.208 76.3473 355.431 74.4043C355.65 72.458 355.759 70.3303 355.759 68.0214V56.2476ZM372.301 62.7776H362.874V68.0214C362.874 70.6998 362.802 72.9711 362.655 74.8798C362.508 76.7851 362.142 78.7314 361.591 80.712C361.041 82.6925 360.196 84.6355 359.098 86.5784H372.301V62.7776Z" fill="#1A7555"/>
<path d="M134.639 45.9412L134.567 46.7485C134.197 47.005 133.76 47.1897 133.246 47.2992C132.733 47.4086 132.22 47.4839 131.704 47.4839C130.312 47.4839 129.176 47.0803 128.369 46.2354C127.561 45.3905 127.158 44.2924 127.158 42.8626C127.158 41.467 127.633 40.3313 128.55 39.4864C129.432 38.6792 130.606 38.3132 131.998 38.3132C132.439 38.3132 132.915 38.3508 133.394 38.4602C133.869 38.5697 134.345 38.7168 134.786 38.9015C134.748 39.0452 134.676 39.1923 134.639 39.377C134.601 39.5617 134.567 39.743 134.529 39.8901H134.457C134.345 39.7806 134.201 39.6335 133.941 39.4488C133.318 39.011 132.658 38.7886 131.96 38.7886C130.825 38.7886 129.946 39.1923 129.32 39.9995C128.735 40.7692 128.44 41.7235 128.44 42.8968C128.44 44.1453 128.772 45.0997 129.395 45.8317C130.017 46.5637 130.862 46.9332 131.889 46.9332C132.364 46.9332 132.843 46.8237 133.318 46.6766C133.831 46.5295 134.273 46.273 134.639 45.9412Z" fill="#1A7555"/>
<path d="M139.773 39.1204V47.3368L139.222 47.2991L138.675 47.3368V39.1204C138.015 39.1204 137.536 39.1204 137.242 39.158C136.951 39.158 136.51 39.2299 135.85 39.3051L135.887 38.9015L135.85 38.4978H142.523L142.489 38.9015L142.523 39.3051C142.195 39.2675 141.791 39.2299 141.316 39.1922C140.765 39.158 140.286 39.1204 139.773 39.1204Z" fill="#1A7555"/>
<path d="M145.202 43.3004V47.371L144.651 47.3368L144.1 47.371V38.4978H146.413C147.658 38.4978 148.54 38.6449 149.016 38.9733C149.495 39.2675 149.751 39.8182 149.751 40.6255C149.751 41.3951 149.529 41.9801 149.053 42.3837C148.612 42.7873 147.918 43.0439 146.997 43.2662C146.888 43.3004 146.741 43.3004 146.56 43.3004C146.375 43.3004 146.265 43.3004 146.228 43.3004C146.047 43.3004 145.862 43.3004 145.715 43.3004C145.496 43.3004 145.349 43.3004 145.202 43.3004ZM145.202 42.7873C145.239 42.7873 145.349 42.7873 145.533 42.7873C145.605 42.7873 145.677 42.7873 145.79 42.7873H146.265C146.375 42.7873 146.45 42.7497 146.484 42.7497C147.11 42.6779 147.623 42.4589 147.989 42.0895C148.355 41.7235 148.54 41.248 148.54 40.6597C148.54 40.1842 148.431 39.8182 148.208 39.524C147.952 39.1922 147.695 39.0486 147.367 39.0109C147.073 38.9733 146.816 38.9733 146.631 38.9733H145.202V42.7873Z" fill="#1A7555"/>
<path d="M154.516 38.3132L158.405 47.3368L157.745 47.2992L157.047 47.3368C156.757 46.4543 156.462 45.7223 156.278 45.2092C156.131 44.8774 155.949 44.4019 155.727 43.8512H152.464C151.951 45.0997 151.694 45.7941 151.619 45.9788C151.475 46.3072 151.328 46.7861 151.181 47.3368L150.702 47.2992L150.264 47.3368L154.297 38.3132H154.516ZM155.47 43.3004L154.041 39.9995L152.611 43.3004H155.47Z" fill="#1A7555"/>
<path d="M160.605 45.062L162.038 42.8968L160.571 40.4408L159.284 38.4978L159.982 38.5321L160.68 38.4978L161.34 39.5959L162.698 41.9458L164.86 38.4978L165.336 38.5321L165.814 38.4978L165.596 38.7544L163.615 41.5046L162.989 42.4589L165.996 47.3368L165.301 47.2991L164.604 47.3368C163.906 45.9788 163.174 44.696 162.366 43.4099C161.559 44.6208 160.79 45.9412 160.02 47.3368L159.541 47.2991L159.066 47.3368L160.605 45.062Z" fill="#1A7555"/>
<path d="M171.537 47.4839C170.104 47.4839 168.931 47.0803 168.089 46.2354C167.207 45.3905 166.803 44.2924 166.803 42.8968C166.803 41.5046 167.282 40.4032 168.199 39.5241C169.078 38.6792 170.217 38.2755 171.609 38.2755C172.967 38.2755 174.065 38.6073 174.948 39.3051C175.974 40.109 176.487 41.2104 176.487 42.6779C176.487 44.1077 176.046 45.2434 175.129 46.1259C174.174 47.0426 172.967 47.4839 171.537 47.4839ZM175.166 42.825C175.166 42.2366 175.129 41.7235 174.982 41.2857C174.872 40.8444 174.653 40.4032 174.322 39.9995C173.993 39.5959 173.627 39.3051 173.148 39.0828C172.673 38.8639 172.197 38.7544 171.647 38.7544C170.508 38.7544 169.628 39.1581 168.968 39.9277C168.308 40.6973 167.976 41.7612 167.976 43.0815C167.976 44.3301 168.308 45.3186 169.006 46.0506C169.666 46.7108 170.473 47.0426 171.5 47.0426C172.71 47.0426 173.661 46.5295 174.322 45.4657C174.91 44.6584 175.166 43.7793 175.166 42.825Z" fill="#1A7555"/>
<path d="M178.173 47.2991V38.4978H180.776C181.768 38.4978 182.5 38.6449 182.942 38.9015C183.417 39.158 183.639 39.6335 183.639 40.2937C183.639 40.882 183.455 41.3575 183.051 41.7611C182.685 42.1648 182.172 42.4213 181.584 42.5684C182.172 42.5684 182.685 42.7155 183.126 43.0062C183.674 43.3757 183.933 43.8888 183.933 44.5866C183.933 45.5033 183.53 46.2353 182.757 46.7861C182.428 47.005 181.987 47.1521 181.436 47.2273C181.108 47.2615 180.633 47.2991 180.007 47.2991H178.173ZM179.312 38.9733V42.3837H179.86C180.229 42.3837 180.52 42.3837 180.776 42.3461C181.033 42.3119 181.255 42.2366 181.512 42.1271C182.172 41.833 182.5 41.3199 182.5 40.5502C182.5 39.9653 182.319 39.5617 181.953 39.3393C181.584 39.1204 181.033 38.9733 180.301 38.9733H179.312ZM179.312 42.8968V46.8237H180.595C181.217 46.8237 181.768 46.639 182.172 46.273C182.576 45.9035 182.794 45.4281 182.794 44.8431C182.794 44.1453 182.538 43.6322 182.062 43.3004C181.621 43.0439 180.999 42.8968 180.154 42.8968H179.312Z" fill="#1A7555"/>
<path d="M189.14 38.3132L193.029 47.3368L192.369 47.2992L191.671 47.3368C191.377 46.4543 191.083 45.7223 190.901 45.2092C190.754 44.8774 190.57 44.4019 190.351 43.8512H187.012C186.499 45.0997 186.242 45.7941 186.171 45.9788C186.024 46.3072 185.876 46.7861 185.729 47.3368L185.254 47.2992L184.813 47.3368L188.846 38.3132H189.14ZM190.094 43.3004L188.664 39.9995L187.269 43.3004H190.094Z" fill="#1A7555"/>
<path d="M199.887 38.4978V47.3368L199.337 47.2991L198.786 47.3368V43.0062H198.31L197.281 44.2172L195.779 46.1977L194.972 47.3368L194.236 47.2991L193.467 47.3368L193.723 47.005L194.349 46.273L196.99 42.8968C196.255 42.7497 195.632 42.5308 195.191 42.1648C194.64 41.7235 194.349 41.1386 194.349 40.4784C194.349 39.8182 194.568 39.3051 195.044 39.0109C195.523 38.6791 196.217 38.5321 197.209 38.5321H199.887V38.4978ZM198.748 42.5308V38.9357H197.503C197.247 38.9357 197.024 38.9357 196.843 38.9733C195.889 39.1204 195.413 39.6711 195.413 40.5879C195.413 41.0633 195.557 41.467 195.851 41.7988C196.145 42.1271 196.549 42.3119 197.062 42.4213C197.247 42.4589 197.394 42.4931 197.537 42.4931C197.684 42.4931 197.869 42.4931 198.054 42.4931H198.748V42.5308Z" fill="#1A7555"/>
<path d="M214.264 38.4978H214.521C214.702 40.2218 214.812 41.248 214.849 41.6517C214.996 42.9344 215.106 43.8888 215.181 44.6208C215.253 45.3186 215.4 46.2353 215.547 47.371L214.925 47.3368L214.299 47.371C214.227 46.5295 214.151 45.6846 214.08 44.915C214.008 44.1453 213.933 43.3757 213.861 42.606C213.785 41.833 213.714 41.2104 213.638 40.7349C213.125 41.6859 212.65 42.4932 212.284 43.2286C211.843 44.0701 211.477 44.7679 211.145 45.3562C210.816 46.0164 210.522 46.639 210.266 47.2615H210.119L209.421 45.7941C209.13 45.1339 208.836 44.5866 208.579 44.1077C208.323 43.6322 208.029 43.0815 207.697 42.3837C207.406 41.833 207.112 41.248 206.818 40.6973C206.671 41.9458 206.523 43.1533 206.376 44.4395C206.233 45.6846 206.157 46.6766 206.157 47.371L205.716 47.3368L205.241 47.371C205.425 46.2353 205.644 44.6584 205.939 42.606C206.233 40.5502 206.414 39.1922 206.452 38.5321H206.78C207.221 39.4146 207.587 40.1466 207.881 40.6973C208.213 41.3575 208.651 42.1271 209.092 42.972C209.605 43.9264 210.047 44.696 210.413 45.281L214.264 38.4978Z" fill="#1A7555"/>
<path d="M218.516 42.3461H220.534C220.682 42.3461 220.9 42.3461 221.195 42.3119C221.451 42.3119 221.636 42.2743 221.708 42.2743L221.67 42.6061L221.708 42.9721C221.561 42.9721 221.342 42.9721 221.048 42.9344C220.791 42.8968 220.61 42.8968 220.534 42.8968H218.516V46.6766C218.81 46.6766 219.252 46.6766 219.874 46.639C220.497 46.639 220.829 46.6014 220.866 46.6014C221.123 46.6014 221.27 46.6014 221.379 46.5672C221.489 46.5672 221.708 46.5295 222.04 46.4543L222.002 46.8579L222.04 47.2616H217.381V38.4602H221.964L221.93 38.8263L221.964 39.1923C221.708 39.1581 221.489 39.1204 221.342 39.0828C221.195 39.0486 221.01 39.0486 220.829 39.0486H218.516V42.3461Z" fill="#1A7555"/>
<path d="M222.7 46.6766H223.25C223.469 46.1635 223.873 45.281 224.458 43.9606C225.046 42.606 225.522 41.5046 225.853 40.7349C226.329 39.5959 226.623 38.8639 226.77 38.4978H227.393C227.612 39.0828 227.872 39.6335 228.091 40.2218C228.091 40.2561 228.604 41.4293 229.558 43.7793C230.109 45.0621 230.509 46.0164 230.769 46.6766H231.316L231.282 47.1897C231.282 47.2992 231.282 47.4086 231.282 47.5181C231.282 47.6275 231.282 47.7404 231.316 47.8499H231.207C231.026 47.5933 230.803 47.4462 230.437 47.371C230.109 47.2992 229.483 47.2992 228.604 47.2992H225.522C224.752 47.2992 224.277 47.2992 224.167 47.2992C223.507 47.3368 223.066 47.5181 222.771 47.8123H222.7C222.7 47.7404 222.734 47.6275 222.734 47.4462C222.734 47.2992 222.734 47.1897 222.734 47.1521L222.7 46.6766ZM224.092 46.6766H229.63L226.917 39.9277H226.88C226.514 40.7349 226.182 41.4293 225.963 42.0177C225.631 42.7873 225.34 43.5228 225.046 44.2548C224.68 45.0244 224.386 45.8317 224.092 46.6766Z" fill="#1A7555"/>
<path d="M232.527 38.4978C232.565 38.4978 232.637 38.4978 232.746 38.5321C232.859 38.5321 232.968 38.5321 233.116 38.5321L233.666 38.4978V45.2468H233.81L239.68 38.4978H240.23V47.3368L239.68 47.2992L239.129 47.3368V40.2937H238.982L233.591 46.5671L232.931 47.371H232.527V38.4978Z" fill="#1A7555"/>
<path d="M250.28 38.4602V46.6766H251.012C251.012 46.7485 251.012 46.8579 250.975 46.9674C250.975 47.0803 250.975 47.1521 250.975 47.1897L251.012 47.8499H250.903C250.756 47.5934 250.499 47.4463 250.133 47.371C249.801 47.2992 249.179 47.2992 248.3 47.2992H246.429C245.402 47.2992 244.629 47.2992 244.116 47.2992C243.603 47.2992 243.09 47.2992 242.649 47.3368V38.4602L243.237 38.4979L243.788 38.4602V46.6766H249.141V38.4602C249.288 38.4979 249.473 38.4979 249.73 38.4979L250.28 38.4602Z" fill="#1A7555"/>
<path d="M252.699 38.4978C252.736 38.4978 252.808 38.4978 252.921 38.5321C253.031 38.5321 253.14 38.5321 253.287 38.5321L253.838 38.4978V45.2468H253.947L259.814 38.4978H260.364V47.3368L259.814 47.2992L259.266 47.3368V40.2937H259.119L253.763 46.5671L253.102 47.371H252.699V38.4978Z" fill="#1A7555"/>
<path d="M269.35 42.2024V38.4978L269.901 38.5321L270.452 38.4978V47.3368L269.901 47.2992L269.35 47.3368V42.8968C268.909 42.8968 268.581 42.8968 268.324 42.8968C267.298 42.8626 266.71 42.8626 266.638 42.8626C266.234 42.8626 265.683 42.8626 265.061 42.8968C264.401 42.9344 264.031 42.9344 263.922 42.9344V47.371L263.371 47.3368L262.824 47.371V38.4978L263.371 38.5321L263.922 38.4978V42.2024C264.363 42.2024 264.876 42.2024 265.536 42.2366C266.196 42.2742 266.562 42.2742 266.638 42.2742C267.041 42.2742 267.37 42.2742 267.626 42.2742C268.69 42.2366 269.241 42.2024 269.35 42.2024Z" fill="#1A7555"/>
<path d="M279.657 45.9412L279.585 46.7485C279.216 47.005 278.778 47.1897 278.265 47.2992C277.748 47.4086 277.235 47.4839 276.722 47.4839C275.33 47.4839 274.191 47.0803 273.387 46.2354C272.579 45.3905 272.176 44.2924 272.176 42.8626C272.176 41.467 272.651 40.3313 273.568 39.4864C274.447 38.6792 275.624 38.3132 277.016 38.3132C277.457 38.3132 277.933 38.3508 278.408 38.4602C278.887 38.5697 279.325 38.7168 279.766 38.9015C279.729 39.0452 279.657 39.1923 279.619 39.377C279.585 39.5617 279.547 39.743 279.51 39.8901H279.438C279.325 39.7806 279.181 39.6335 278.925 39.4488C278.299 39.011 277.639 38.7886 276.978 38.7886C275.843 38.7886 274.964 39.1923 274.303 39.9995C273.715 40.7692 273.421 41.7235 273.421 42.8968C273.421 44.1453 273.753 45.0997 274.375 45.8317C274.998 46.5637 275.843 46.9332 276.869 46.9332C277.344 46.9332 277.823 46.8237 278.299 46.6766C278.85 46.5295 279.291 46.273 279.657 45.9412Z" fill="#1A7555"/>
<path d="M287.873 38.4978L284.938 41.3199L283.837 42.4213C284.863 43.5946 285.927 44.8055 286.991 45.9788L288.02 47.2615V47.3368L287.323 47.2991L286.587 47.3368C286.443 47.1521 286.296 46.9331 286.149 46.7484C286.002 46.5295 285.855 46.3448 285.67 46.1635L282.848 42.8626C282.811 42.825 282.739 42.7873 282.664 42.7873C282.626 42.7873 282.626 42.7873 282.626 42.825V47.3368L282.079 47.2991L281.528 47.3368V38.4978L282.079 38.5321L282.626 38.4978V42.4931C282.626 42.5308 282.664 42.5308 282.739 42.5308C282.811 42.5308 282.882 42.4589 282.958 42.4213C283.03 42.3461 283.177 42.2366 283.399 42.0177C283.471 41.9458 283.543 41.8706 283.656 41.7988L286.844 38.5321L287.36 38.5697L287.873 38.4978Z" fill="#1A7555"/>
<path d="M292.751 38.3132L296.637 47.3368L295.977 47.2992L295.282 47.3368C294.988 46.4543 294.694 45.7223 294.509 45.2092C294.365 44.8774 294.181 44.4019 293.962 43.8512H290.695C290.182 45.0997 289.926 45.7941 289.854 45.9788C289.707 46.3072 289.56 46.7861 289.412 47.3368L288.937 47.2992L288.496 47.3368L292.529 38.3132H292.751ZM293.702 43.3004L292.272 39.9995L290.88 43.3004H293.702Z" fill="#1A7555"/>
<path d="M303.571 38.4978V47.3368L302.982 47.2991L302.431 47.3368V43.0062H301.956L300.93 44.2172L299.425 46.1977L298.617 47.3368L297.885 47.2991L297.116 47.3368L297.372 47.005L297.995 46.273L300.636 42.8968C299.904 42.7497 299.278 42.5308 298.84 42.1648C298.289 41.7235 297.995 41.1386 297.995 40.4784C297.995 39.8182 298.214 39.3051 298.693 39.0109C299.168 38.6791 299.866 38.5321 300.854 38.5321H303.571V38.4978ZM302.431 42.5308V38.9357H301.186C300.93 38.9357 300.707 38.9357 300.526 38.9733C299.572 39.1204 299.096 39.6711 299.096 40.5879C299.096 41.0633 299.243 41.467 299.534 41.7988C299.828 42.1271 300.232 42.3119 300.745 42.4213C300.93 42.4589 301.077 42.4931 301.224 42.4931C301.368 42.4931 301.552 42.4931 301.737 42.4931H302.431V42.5308Z" fill="#1A7555"/>
<path d="M315.892 38.4978L312.96 41.3199L311.859 42.4213C312.885 43.5946 313.949 44.8055 315.012 45.9788L316.039 47.2615V47.3368L315.341 47.2991L314.609 47.3368C314.462 47.1521 314.315 46.9331 314.168 46.7484C314.021 46.5295 313.877 46.3448 313.692 46.1635L310.867 42.8626C310.832 42.825 310.757 42.7873 310.685 42.7873C310.648 42.7873 310.648 42.7873 310.648 42.825V47.3368L310.097 47.2991L309.512 47.3368V38.4978L310.097 38.5321L310.648 38.4978V42.4931C310.648 42.5308 310.685 42.5308 310.757 42.5308C310.832 42.5308 310.904 42.4589 310.98 42.4213C311.051 42.3461 311.198 42.2366 311.417 42.0177C311.493 41.9458 311.565 41.8706 311.674 41.7988L314.865 38.5321L315.379 38.5697L315.892 38.4978Z" fill="#1A7555"/>
<path d="M321.614 47.4839C320.185 47.4839 319.011 47.0803 318.166 46.2354C317.287 45.3905 316.884 44.2924 316.884 42.8968C316.884 41.5046 317.359 40.4032 318.276 39.5241C319.158 38.6792 320.294 38.2755 321.686 38.2755C323.044 38.2755 324.146 38.6073 325.025 39.3051C326.051 40.109 326.564 41.2104 326.564 42.6779C326.564 44.1077 326.126 45.2434 325.209 46.1259C324.255 47.0426 323.044 47.4839 321.614 47.4839ZM325.244 42.825C325.244 42.2366 325.172 41.7235 325.062 41.2857C324.953 40.8444 324.73 40.4032 324.402 39.9995C324.07 39.5959 323.704 39.3051 323.229 39.0828C322.75 38.8639 322.275 38.7544 321.724 38.7544C320.588 38.7544 319.706 39.1581 319.045 39.9277C318.385 40.6973 318.057 41.7612 318.057 43.0815C318.057 44.3301 318.385 45.3186 319.083 46.0506C319.743 46.7108 320.551 47.0426 321.577 47.0426C322.788 47.0426 323.742 46.5295 324.402 45.4657C324.987 44.6584 325.244 43.7793 325.244 42.825Z" fill="#1A7555"/>
<path d="M336.652 38.4978H336.908C337.093 40.2218 337.202 41.248 337.236 41.6517C337.384 42.9344 337.496 43.8888 337.568 44.6208C337.64 45.3186 337.787 46.2353 337.934 47.371L337.312 47.3368L336.689 47.371C336.614 46.5295 336.542 45.6846 336.467 44.915C336.395 44.1453 336.32 43.3757 336.248 42.606C336.176 41.833 336.101 41.2104 336.029 40.7349C335.516 41.6859 335.037 42.4932 334.671 43.2286C334.23 44.0701 333.864 44.7679 333.535 45.3562C333.203 46.0164 332.909 46.639 332.653 47.2615H332.506L331.811 45.7941C331.517 45.1339 331.223 44.5866 330.966 44.1077C330.71 43.6322 330.416 43.0815 330.087 42.3837C329.793 41.833 329.499 41.248 329.205 40.6973C329.061 41.9458 328.914 43.1533 328.767 44.4395C328.62 45.6846 328.545 46.6766 328.545 47.371L328.107 47.3368L327.628 47.371C327.813 46.2353 328.031 44.6584 328.326 42.606C328.62 40.5502 328.801 39.1922 328.839 38.5321H329.171C329.608 39.4146 329.978 40.1466 330.269 40.6973C330.6 41.3575 331.038 42.1271 331.479 42.972C331.993 43.9264 332.434 44.696 332.8 45.281L336.652 38.4978Z" fill="#1A7555"/>
<path d="M339.768 38.4978H347.471V47.3368L346.92 47.2991L346.335 47.3368V39.158L343.657 39.1204L340.907 39.158V47.3368L340.356 47.2991L339.768 47.3368V38.4978Z" fill="#1A7555"/>
<path d="M353.081 38.3132L356.97 47.3368L356.31 47.2992L355.612 47.3368C355.318 46.4543 355.027 45.7223 354.842 45.2092C354.695 44.8774 354.514 44.4019 354.292 43.8512H351.028C350.515 45.0997 350.259 45.7941 350.184 45.9788C350.036 46.3072 349.927 46.7861 349.746 47.3368L349.267 47.2992L348.829 47.3368L352.862 38.3132H353.081ZM354.073 43.3004L352.643 39.9995L351.247 43.3004H354.073Z" fill="#1A7555"/>
<path d="M364.817 42.2024V38.4978L365.368 38.5321L365.919 38.4978V47.3368L365.368 47.2992L364.817 47.3368V42.8968C364.379 42.8968 364.047 42.8968 363.791 42.8968C362.765 42.8626 362.176 42.8626 362.105 42.8626C361.701 42.8626 361.15 42.8626 360.528 42.8968C359.867 42.9344 359.501 42.9344 359.392 42.9344V47.371L358.841 47.3368L358.29 47.371V38.4978L358.841 38.5321L359.392 38.4978V42.2024C359.83 42.2024 360.343 42.2024 361.003 42.2366C361.663 42.2742 362.033 42.2742 362.105 42.2742C362.508 42.2742 362.837 42.2742 363.097 42.2742C364.157 42.2366 364.745 42.2024 364.817 42.2024Z" fill="#1A7555"/>
<path d="M368.34 38.4978C368.375 38.4978 368.45 38.4978 368.559 38.5321C368.669 38.5321 368.778 38.5321 368.925 38.5321L369.476 38.4978V45.2468H369.623L375.493 38.4978H376.078V47.3368L375.493 47.2992L374.942 47.3368V40.2937H374.795L369.404 46.5671L368.744 47.371H368.34V38.4978Z" fill="#1A7555"/>
<path d="M384 38.4978V47.3368L383.449 47.2991L382.899 47.3368V43.0062H382.423L381.397 44.2172L379.892 46.1977L379.085 47.3368L378.353 47.2991L377.583 47.3368L377.839 47.005L378.462 46.273L381.103 42.8968C380.371 42.7497 379.745 42.5308 379.307 42.1648C378.756 41.7235 378.462 41.1386 378.462 40.4784C378.462 39.8182 378.681 39.3051 379.16 39.0109C379.635 38.6791 380.333 38.5321 381.322 38.5321H384V38.4978ZM382.864 42.5308V38.9357H381.616C381.359 38.9357 381.14 38.9357 380.956 38.9733C380.001 39.1204 379.526 39.6711 379.526 40.5879C379.526 41.0633 379.673 41.467 379.967 41.7988C380.258 42.1271 380.661 42.3119 381.175 42.4213C381.359 42.4589 381.506 42.4931 381.653 42.4931C381.801 42.4931 381.982 42.4931 382.167 42.4931H382.864V42.5308Z" fill="#1A7555"/>
<path d="M82.4842 67.6554V35.8913C76.6554 37.1775 71.8494 39.377 67.9636 42.459C63.0105 46.3448 59.4906 51.7015 57.2535 58.3752L48.3051 55.3685C51.1648 46.9332 55.7108 40.0748 62.1314 35.0122C68.5109 29.9873 76.6178 26.7958 86.6676 25.6226L91.9491 25V67.6554H82.4842Z" fill="#1A7555"/>
<path d="M76.286 62.2987H44.9289C46.2117 68.1309 48.4146 72.9369 51.4932 76.8227C55.3448 81.7758 60.7357 85.2957 67.4128 87.5704L64.4061 96.5188C55.9331 93.6591 49.109 89.1097 44.0498 82.6926C39.0249 76.3096 35.8335 68.1685 34.6226 58.1563L34 52.8372H76.286V62.2987Z" fill="#1A7555"/>
<path d="M71.3363 68.5345V99.8915C77.1685 98.6088 81.9711 96.4093 85.8604 93.3273C90.8101 89.4415 94.3333 84.0848 96.6046 77.3735L105.556 80.3802C102.693 88.8531 98.1473 95.6739 91.7268 100.736C85.3473 105.761 77.2404 108.953 67.1905 110.126L61.909 110.749V68.5345H71.3363Z" fill="#1A7555"/>
<path d="M77.8287 73.4842H108.892C107.609 67.6554 105.409 62.8494 102.327 58.9636C98.4415 54.0105 93.0847 50.4906 86.3734 48.2159L89.3802 39.2675C97.8531 42.1272 104.674 46.6766 109.774 53.0938C114.799 59.4767 117.987 67.5802 119.16 77.63L119.786 82.9115H77.8287V73.4842Z" fill="#1A7555"/>
</svg>
